PathFileType	4	(X/Y/Z)	A12_1_OpenSim.trc																																																																																																																						
DataRate	CameraRate	NumFrames	NumMarkers	Units	OrigDataRate	OrigDataStartFrame	OrigNumFrames																																																																																																																		
100	100	8	40	mm	100	2626	3000																																																																																																																		
Frame#	Time	R.ASIS			R.PSIS			S2			L.PSIS			L.ASIS			R.TH1			R.TH2			R.TH3			R.MKnee			R.Knee			R.SH1			R.SH2			R.SH3			R.SH4			R.Ankle			R.MAnkle			R.Heel			R.MT5			R.MT1			L.TH1			L.TH2			L.TH3			L.TH4			L.MKnee			L.Knee			L.SH1			L.SH2			L.SH3			L.Ankle			L.MAnkle			L.Heel			L.MT5			L.MT1			R.Acr			L.Acr			C7			T10			Clav			Sternum			R.Back		
		X1	Y1	Z1	X2	Y2	Z2	X3	Y3	Z3	X4	Y4	Z4	X5	Y5	Z5	X6	Y6	Z6	X7	Y7	Z7	X8	Y8	Z8	X9	Y9	Z9	X10	Y10	Z10	X11	Y11	Z11	X12	Y12	Z12	X13	Y13	Z13	X14	Y14	Z14	X15	Y15	Z15	X16	Y16	Z16	X17	Y17	Z17	X18	Y18	Z18	X19	Y19	Z19	X20	Y20	Z20	X21	Y21	Z21	X22	Y22	Z22	X23	Y23	Z23	X24	Y24	Z24	X25	Y25	Z25	X26	Y26	Z26	X27	Y27	Z27	X28	Y28	Z28	X29	Y29	Z29	X30	Y30	Z30	X31	Y31	Z31	X32	Y32	Z32	X33	Y33	Z33	X34	Y34	Z34	X35	Y35	Z35	X36	Y36	Z36	X37	Y37	Z37	X38	Y38	Z38	X39	Y39	Z39	X40	Y40	Z40
2626	26.25	965.3571	1054.0996	-442.7487	776.9435	1048.5422	-534.5139	770.2663	1045.6442	-579.8751	776.2567	1054.7861	-629.7644	952.017	1064.0363	-730.7216	1015.8394	728.1858	-428.0574	939.6993	701.8345	-411.7487	974.8238	597.5934	-421.474	1019.1916	487.1526	-548.3933	1013.985	495.5926	-428.2019	905.6432	373.8705	-423.1088	821.5738	299.7641	-439.3389	851.7864	436.0656	-414.4525	768.0134	358.5571	-420.4319	655.9586	251.8559	-426.9421	694.0986	230.0452	-517.6797	597.1994	285.7856	-487.6444	673.1736	131.4151	-399.6442	705.8455	93.5004	-486.1277	1011.3037	769.8922	-744.4117	1030.1893	663.7664	-727.4216	929.693	750.2091	-751.3401	951.9723	645.5252	-727.517	1034.4804	516.5688	-594.6317	1032.0112	517.0439	-704.808	1036.0679	380.5051	-715.7373	954.4188	385.9644	-723.1382	949.2955	276.697	-712.0803	983.7195	80.6529	-700.4943	1016.1361	91.8878	-601.7909	919.5726	42.2405	-643.3138	1090.5997	32.4504	-718.9868	1133.1666	44.2694	-621.2115	893.5391	1450.3065	-426.033	855.5449	1438.1855	-751.8255	819.7986	1484.7247	-587.1551	794.7242	1158.0284	-576.4562	959.184	1393.1696	-596.6628	991.166	1250.7297	-587.5978	749.0668	1385.6268	-496.0075
2627	26.26	964.5071	1056.3701	-443.7013	776.2332	1050.756	-535.3417	769.5642	1047.8298	-580.7007	775.6072	1056.9216	-630.6049	951.4111	1065.5801	-731.6455	1019.6471	732.9813	-428.2999	943.9446	704.981	-412.3932	981.5206	601.5154	-421.778	1028.4679	491.9928	-548.8422	1022.8167	500.3534	-428.5311	915.9655	377.6707	-423.7354	833.1732	302.216	-439.7185	861.2203	439.1765	-416.7202	778.5978	360.509	-422.3426	668.4072	252.129	-428.5465	707.5358	230.0758	-518.9235	608.7222	283.0256	-489.9253	689.546	133.0044	-399.2255	723.647	94.5849	-484.9224	1007.7935	770.0109	-745.0049	1025.4108	663.7468	-728.1328	926.0216	751.3519	-751.7783	947.0062	646.3908	-727.8981	1028.1543	516.2789	-595.1724	1025.2564	516.8157	-705.4415	1027.8417	380.2376	-716.1355	946.2761	386.5698	-723.7321	939.9291	277.3702	-712.6214	972.0131	80.9159	-700.6997	1004.4144	92.012	-601.8718	907.7299	42.5466	-643.4371	1078.4204	32.5321	-719.3662	1121.2849	44.3176	-621.3416	892.0381	1451.7661	-426.288	855.2185	1440.3815	-752.2975	819.1406	1486.5448	-587.6636	793.9514	1159.9159	-577.727	958.4301	1394.9752	-596.8511	990.4196	1252.5676	-587.9048	747.9368	1387.2498	-497.1748
2628	26.27	963.7264	1058.6738	-444.6264	775.5202	1052.9468	-535.9585	768.8388	1049.981	-581.3127	774.8872	1059.0165	-631.2321	950.6619	1067.1238	-732.5263	1023.0218	737.8012	-428.2329	947.7698	708.28	-412.8878	987.5859	605.5883	-421.9223	1037.3079	496.9793	-549.0098	1031.0232	505.1733	-428.6549	926.2969	380.9275	-424.1505	845.2011	303.7088	-439.9429	870.3317	441.4154	-418.8834	789.3364	361.1661	-424.1705	681.646	250.4958	-430.0709	721.8731	228.4724	-520.1313	621.0352	278.1924	-492.112	707.0564	132.8362	-398.796	742.7778	94.2064	-483.7418	1004.1036	770.1612	-745.5986	1020.4106	663.7452	-728.9104	922.1859	752.5574	-752.2775	941.8226	647.3127	-728.4194	1021.4664	515.9902	-595.7939	1018.1238	516.5902	-706.1871	1019.324	379.9995	-716.6687	937.8424	387.1394	-724.424	930.3688	278.0165	-713.2386	960.2835	81.1721	-700.958	992.6906	92.1469	-601.9938	895.8751	42.8562	-643.5509	1066.2142	32.5972	-719.7574	1109.3833	44.3514	-621.5021	890.4692	1453.2825	-426.4831	854.9703	1442.6095	-752.7129	818.4817	1488.363	-588.1405	793.1603	1161.8145	-578.879	957.6605	1396.8152	-596.959	989.6633	1254.4458	-588.1348	746.7936	1388.881	-498.3226
2629	26.28	963.0126	1060.9556	-445.5281	774.8049	1055.0531	-536.3888	768.091	1052.0405	-581.7366	774.1003	1061.0155	-631.67	949.775	1068.6248	-733.3755	1026.0098	742.5538	-427.8824	951.2227	711.6401	-413.2318	993.0305	609.7064	-421.9296	1045.6296	502.0026	-548.9175	1038.6139	509.9425	-428.5901	936.6407	383.5664	-424.3856	857.6389	304.2574	-440.0461	879.1831	442.7133	-420.7834	800.2635	360.5289	-425.8093	695.6553	247.0776	-431.4537	737.0745	225.3814	-521.2468	634.1921	271.4834	-494.1418	725.5635	131.0338	-398.363	763.0766	92.5104	-482.604	1000.2716	770.3253	-746.1667	1015.2405	663.7423	-729.7026	918.2109	753.7905	-752.8201	936.4715	648.2618	-729.0422	1014.5011	515.7104	-596.4749	1010.6736	516.3661	-706.9977	1010.5221	379.7785	-717.2946	929.1309	387.684	-725.1186	920.6046	278.6447	-713.8496	948.5233	81.4089	-701.2089	980.96	92.2847	-602.1239	883.9995	43.1782	-643.6448	1054.024	32.6461	-720.1141	1097.462	44.3702	-621.6779	888.8771	1454.8166	-426.625	854.8292	1444.8251	-753.0601	817.8347	1490.1444	-588.5802	792.3541	1163.6885	-579.9178	956.8916	1398.6451	-596.9909	988.8941	1256.3127	-588.2966	745.6627	1390.4954	-499.4287
2630	26.29	962.3566	1063.1641	-446.411	774.0881	1057.0259	-536.6668	767.3245	1053.9626	-582.0071	773.2577	1062.874	-631.9535	948.7684	1070.0366	-734.1995	1028.663	747.1583	-427.2888	954.3377	714.9724	-413.4247	997.8867	613.7691	-421.8199	1053.3475	506.9452	-548.5999	1045.593	514.5685	-428.3663	946.9766	385.5738	-424.4691	870.4492	303.9312	-440.0578	887.8063	443.0667	-422.314	811.3826	358.6668	-427.1911	710.4121	242.0241	-432.646	753.096	220.9777	-522.2084	648.2021	263.0674	-495.9563	745.0115	127.7785	-397.9244	784.4698	89.7166	-481.5271	996.3236	770.4746	-746.6793	1009.944	663.7247	-730.456	914.1106	755.012	-753.3826	930.9932	649.2051	-729.7158	1007.3246	515.4321	-597.1895	1002.9693	516.1394	-707.8258	1001.4763	379.5618	-717.9589	920.189	388.208	-725.7576	910.6594	279.2599	-714.4013	936.7281	81.6105	-701.3931	969.218	92.4209	-602.2368	872.09	43.5229	-643.7167	1041.8838	32.6763	-720.4062	1085.5281	44.3715	-621.8516	887.3029	1456.3212	-426.719	854.8116	1446.9806	-753.3282	817.2084	1491.854	-588.9746	791.5385	1165.5	-580.8534	956.1379	1400.4183	-596.9544	988.108	1258.1146	-588.4028	744.5636	1392.0648	-500.4741
2631	26.3	961.7445	1065.2533	-447.2773	773.3711	1058.8292	-536.8293	766.5448	1055.7134	-582.1615	772.3757	1064.5591	-632.1204	947.6708	1071.3179	-734.9987	1031.0283	751.5457	-426.5047	957.133	718.1937	-413.4707	1002.2001	617.6873	-421.6108	1060.3982	511.6995	-548.1046	1051.9574	518.98	-428.0222	957.2709	386.9802	-424.4214	883.5895	302.8277	-440.0037	896.2095	442.5177	-423.4257	822.6821	355.6874	-428.2812	725.904	235.5003	-433.6084	769.8931	215.4442	-522.9564	663.0585	253.1005	-497.4963	765.396	123.2845	-397.4713	806.925	86.0781	-480.5221	992.2815	770.5776	-747.1101	1004.5558	663.681	-731.1231	909.8968	756.1856	-753.94	925.423	650.1114	-730.3884	999.9752	515.1419	-597.9038	995.077	515.905	-708.6317	992.2525	379.3383	-718.6093	911.0857	388.7122	-726.3217	900.5811	279.8648	-714.8721	924.9022	81.7699	-701.4797	957.4619	92.5538	-602.3164	860.1354	43.8969	-643.7695	1029.8091	32.6862	-720.6218	1073.5891	44.3538	-622.0036	885.782	1457.7456	-426.7693	854.9159	1449.0317	-753.5138	816.6083	1493.4598	-589.3159	790.7224	1167.2102	-581.6967	955.4106	1402.0911	-596.8595	987.308	1259.8009	-588.4653	743.5103	1393.5596	-501.444
2632	26.31	961.1585	1067.1832	-448.1201	772.655	1060.4396	-536.912	765.7589	1057.2705	-582.2346	771.4734	1066.0498	-632.2062	946.5179	1072.4385	-735.7673	1033.139	755.6589	-425.5929	959.6281	721.2326	-413.3791	1006.0176	621.3865	-421.3193	1066.7544	516.1801	-547.4913	1057.6991	523.1226	-427.6014	967.486	387.8401	-424.2541	897.0196	301.0543	-439.9007	904.3949	441.1272	-424.1152	834.1505	351.7126	-429.0638	742.1333	227.6787	-434.3097	787.4246	208.9684	-523.4482	678.7606	241.7423	-498.7074	786.727	117.7808	-396.9907	830.4056	81.8512	-479.5863	988.1645	770.6052	-747.4392	999.1025	663.5963	-731.6678	905.5886	757.2828	-754.469	919.7935	650.9566	-731.0172	992.4721	514.8285	-598.5821	987.0612	515.6578	-709.3856	982.9243	379.1006	-719.2057	901.8929	389.1974	-726.8151	890.4247	280.4613	-715.2643	913.0559	81.8974	-701.477	945.6919	92.6827	-602.3556	848.1353	44.2983	-643.8071	1017.8008	32.6767	-720.7624	1061.644	44.3209	-622.1141	884.342	1459.0416	-426.7794	855.1224	1450.9406	-753.6221	816.0368	1494.9349	-589.5985	789.9179	1168.7833	-582.4551	954.7166	1403.6266	-596.7174	986.5101	1261.3308	-588.4917	742.5118	1394.9509	-502.3274
2633	26.32	960.5836	1068.921	-448.9222	771.9413	1061.8451	-536.9458	764.9747	1058.6232	-582.2568	770.5716	1067.3365	-632.2412	945.3508	1073.3829	-736.4937	1035.0096	759.4481	-424.6202	961.8495	724.0355	-413.1634	1009.3766	624.8079	-420.9648	1072.4163	520.3206	-546.8247	1062.8113	526.9535	-427.1478	977.5873	388.2148	-423.9741	910.7034	298.7176	-439.753	912.3755	438.9558	-424.4084	845.7895	346.8643	-429.535	759.1119	218.7382	-434.7266	805.6556	201.7373	-523.6628	695.3249	229.1665	-499.5518	809.001	111.4982	-396.4642	854.843	77.2721	-478.6995	983.9899	770.5359	-747.654	993.6054	663.4536	-732.0675	901.2194	758.2859	-754.9521	914.1367	651.726	-731.5767	984.8297	514.4866	-599.1964	978.9774	515.3932	-710.0668	973.5536	378.8452	-719.7239	892.6675	389.6656	-727.2471	880.2369	281.0517	-715.5905	901.199	82.0152	-701.4157	933.9099	92.8072	-602.3552	836.1075	44.7138	-643.8295	1005.8492	32.6503	-720.8381	1049.6826	44.2829	-622.1719	883.0019	1460.1668	-426.7559	855.401	1452.6755	-753.6609	815.494	1496.2583	-589.8189	789.1392	1170.1892	-583.1335	954.0603	1404.9956	-596.5393	985.7368	1262.6746	-588.4874	741.5724	1396.2125	-503.1179
